<?xml version="1.0" standalone="no"?>
<!DOCTYPE svg PUBLIC "-//W3C//DTD SVG 20010904//EN"
 "http://www.w3.org/TR/2001/REC-SVG-20010904/DTD/svg10.dtd">
<svg version="1.0" xmlns="http://www.w3.org/2000/svg"
 width="443.000000pt" height="443.000000pt" viewBox="0 0 443.000000 443.000000"
 preserveAspectRatio="xMidYMid meet">
<metadata>
Created by potrace 1.14, written by Peter Selinger 2001-2017
</metadata>
<g transform="translate(0.000000,443.000000) scale(0.100000,-0.100000)"
fill="#000000" stroke="none">
<path d="M2025 4400 c-55 -4 -111 -10 -125 -14 -14 -4 -41 -9 -60 -10 -58 -6
-244 -57 -252 -70 -4 -6 -8 -8 -8 -4 0 10 -142 -43 -246 -92 -47 -22 -89 -40
-95 -40 -5 0 -9 -4 -9 -10 0 -5 -4 -10 -9 -10 -21 0 -262 -153 -269 -172 -2
-4 -10 -8 -17 -8 -8 0 -20 -8 -27 -18 -7 -9 -29 -29 -49 -44 -78 -58 -275
-266 -344 -363 -11 -16 -26 -34 -33 -41 -6 -7 -12 -16 -12 -20 0 -3 -15 -28
-34 -54 -40 -56 -148 -248 -151 -270 -1 -3 -10 -23 -22 -45 -11 -22 -28 -65
-38 -95 -10 -30 -21 -59 -25 -65 -4 -5 -17 -46 -29 -90 -12 -44 -25 -87 -28
-95 -3 -8 -7 -24 -9 -35 -1 -11 -5 -31 -8 -45 -12 -52 -17 -77 -27 -145 -6
-38 -13 -86 -16 -105 -18 -112 0 -515 27 -620 5 -20 12 -51 14 -70 8 -55 61
-236 99 -335 50 -131 176 -373 200 -383 4 -2 7 -10 7 -18 0 -8 5 -14 10 -14 6
0 10 -5 10 -10 0 -10 92 -139 135 -188 44 -50 213 -219 255 -254 71 -60 87
-72 110 -88 12 -8 31 -23 42 -33 12 -9 25 -17 29 -17 4 0 14 -6 21 -13 31 -30
338 -197 364 -197 5 0 22 -7 37 -15 24 -12 174 -66 200 -71 4 -1 8 -2 10 -4 1
-1 11 -3 22 -5 11 -2 29 -6 40 -9 58 -15 163 -36 186 -36 14 0 28 -2 31 -5 13
-14 301 -20 456 -10 147 10 428 71 532 117 19 8 60 25 90 38 47 20 162 76 235
114 11 6 34 21 52 34 17 12 34 22 37 22 9 0 185 127 242 175 83 69 294 284
294 299 0 3 14 20 30 38 17 18 30 36 30 40 0 4 11 19 25 34 14 15 25 33 25 40
0 8 5 14 10 14 6 0 14 8 18 17 4 10 27 51 51 92 107 181 228 492 246 636 3 17
7 41 11 55 24 97 28 160 28 400 0 240 -5 314 -29 410 -4 14 -8 34 -11 45 -24
119 -50 216 -65 245 -4 8 -18 44 -30 80 -12 36 -30 83 -40 104 -11 22 -19 45
-19 52 0 7 -3 14 -7 16 -5 2 -32 50 -62 107 -29 57 -57 109 -62 115 -5 6 -24
34 -42 61 -17 28 -38 56 -45 64 -8 8 -25 31 -38 53 -13 21 -29 38 -34 38 -6 0
-10 5 -10 10 0 21 -224 254 -304 315 -21 17 -46 37 -56 45 -10 8 -28 22 -40
30 -12 8 -42 30 -66 48 -23 17 -47 32 -53 32 -5 0 -22 11 -37 25 -15 14 -29
23 -32 20 -3 -2 -17 4 -31 14 -51 36 -341 168 -341 155 0 -2 -21 5 -47 15 -27
10 -84 26 -128 36 -44 10 -87 20 -95 23 -8 3 -24 6 -35 7 -11 1 -22 3 -25 4
-3 2 -16 4 -30 5 -14 2 -37 6 -52 9 -41 11 -340 15 -453 7z"/>
</g>
</svg>
